{"title":"Adelheid (Frantisek Vlacil, 1970) (720p)","uid":9240408,"size":4384721198,"categoryP":"video","categoryS":"hd___movies","magnet":"?xt=urn:btih:3b43a2387ec382ad42b26b25b5024fe697dd8815&amp;dn=Adelheid+%28Frantisek+Vlacil%2C+1970%29+%28720p%29&amp;tr=udp%3A%2F%2Ftracker.openbittorrent.com%3A80&amp;tr=udp%3A%2F%2Fopen.demonii.com%3A1337&amp;tr=udp%3A%2F%2Ftracker.coppersurfer.tk%3A6969&amp;tr=udp%3A%2F%2Fexodus.desync.com%3A6969","seeders":0,"leechers":1,"uploader":"moonflux","files":1,"time":1385259831,"description":"In the aftermath of World War II, a former Czech soldier takes charge of a manor formerly owned by a German family. He falls in love with the daughter, who is now a maid, and is forced to confront the stress between his love and his conscience.\n\nGeneral\nUnique ID                                : 230045168074916629080311549727001778968 (0xAD1116787801BE5681F846DEEA2F9B18)\nComplete name                            : Adelheid.1970.HDTVRip.720p.mkv\nFormat                                   : Matroska\nFormat version                           : Version 2\nFile size                                : 4.08 GiB\nDuration                                 : 1h 38mn\nOverall bit rate                         : 5 949 Kbps\nMovie name                               : Adelheid (1970)\nEncoded date                             : UTC 2013-11-21 17:12:45\nWriting application                      : mkvmerge v4.4.0 ('Die Wiederkehr') built on Oct 31 2010 21:52:48\nWriting library                          : libebml v1.0.0 + libmatroska v1.0.0\n\nVideo\nID                                       : 1\nFormat                                   : AVC\nFormat/Info                              : Advanced Video Codec\nFormat profile                           : &lt;a class=&quot;__cf_email__&quot; href=&quot;/cdn-cgi/l/email-protection&quot; data-cfemail=&quot;034b6a646b434f372d32&quot;&gt;[email&amp;#160;protected]&lt;/a&gt;&lt;script cf-hash='f9e31' type=&quot;text/javascript&quot;&gt;\n/* &lt;![CDATA[ */!function(){try{var t=&quot;currentScript&quot;in document?document.currentScript:function(){for(var t=document.getElementsByTagName(&quot;script&quot;),e=t.length;e--;)if(t[e].getAttribute(&quot;cf-hash&quot;))return t[e]}();if(t&amp;&amp;t.previousSibling){var e,r,n,i,c=t.previousSibling,a=c.getAttribute(&quot;data-cfemail&quot;);if(a){for(e=&quot;&quot;,r=parseInt(a.substr(0,2),16),n=2;a.length-n;n+=2)i=parseInt(a.substr(n,2),16)^r,e+=String.fromCharCode(i);e=document.createTextNode(e),c.parentNode.replaceChild(e,c)}}}catch(u){}}();/* ]]&gt; */&lt;/script&gt;\nFormat settings, CABAC                   : Yes\nFormat settings, ReFrames                : 9 frames\nMuxing mode                              : Header stripping\nCodec ID                                 : V_MPEG4/ISO/AVC\nDuration                                 : 1h 38mn\nBit rate                                 : 5 500 Kbps\nWidth                                    : 988 pixels\nHeight                                   : 720 pixels\nDisplay aspect ratio                     : 1.372\nFrame rate mode                          : Constant\nFrame rate                               : 25.000 fps\nColor space                              : YUV\nChroma subsampling                       : 4:2:0\nBit depth                                : 8 bits\nScan type                                : Progressive\nBits/(Pixel*Frame)                       : 0.309\nStream size                              : 3.69 GiB (90%)\nTitle                                    : Adelheid.1970.720p.HDTV.x264-DON\nWriting library                          : x264 core 120 r2145 748fe16\nEncoding settings                        : cabac=1 // deblock=1:-3:-3 / analyse=0x3:0x133 / me=umh / subme=10 / psy=1 / psy_rd=1.15:0.15 // me_range=32 / chroma_me=1 / trellis=2 / 8x8dct=1 / cqm=0 / deadzone=21,11 / fast_pskip=0 / chroma_qp_offset=-3 / threads=12 / sliced_threads=0 / nr=0 / decimate=0 / interlaced=0 / bluray_compat=0 / constrained_intra=0 / bframes=7 / b_pyramid=2 / b_adapt=2 / b_bias=0 / direct=3 / weightb=1 / open_gop=0 / weightp=2 / keyint=250 / keyint_min=25 / scenecut=40 / intra_refresh=0 / rc_lookahead=60 / rc=2pass / mbtree=1 / bitrate=5500 / ratetol=1.0 / qcomp=0.75 / qpmin=0 / qpmax=69 / qpstep=4 / cplxblur=20.0 / qblur=0.5 / vbv_maxrate=50000 / vbv_bufsize=62500 / nal_hrd=none / ip_ratio=1.40 / aq=1:0.80\nLanguage                                 : Czech\nDefault                                  : Yes\nForced                                   : No\n\nAudio\nID                                       : 2\nFormat                                   : AC-3\nFormat/Info                              : Audio Coding 3\nMode extension                           : CM (complete main)\nFormat settings, Endianness              : Big\nMuxing mode                              : Header stripping\nCodec ID                                 : A_AC3\nDuration                                 : 1h 38mn\nBit rate mode                            : Constant\nBit rate                                 : 448 Kbps\nChannel(s)                               : 2 channels\nChannel positions                        : Front: L R\nSampling rate                            : 48.0 KHz\nBit depth                                : 16 bits\nCompression mode                         : Lossy\nStream size                              : 315 MiB (8%)\nTitle                                    : Original AC3 2.0 448 kbps\nLanguage                                 : Czech\nDefault                                  : No\nForced                                   : No\n\nText\nID                                       : 3\nFormat                                   : UTF-8\nCodec ID                                 : S_TEXT/UTF8\nCodec ID/Info                            : UTF-8 Plain Text\nLanguage                                 : English\nDefault                                  : Yes\nForced                                   : No\n\n","torrent":{"xt":"urn:btih:3b43a2387ec382ad42b26b25b5024fe697dd8815","amp;dn":"Adelheid+%28Frantisek+Vlacil%2C+1970%29+%28720p%29","amp;tr":["udp%3A%2F%2Ftracker.openbittorrent.com%3A80","udp%3A%2F%2Fopen.demonii.com%3A1337","udp%3A%2F%2Ftracker.coppersurfer.tk%3A6969","udp%3A%2F%2Fexodus.desync.com%3A6969"],"infoHash":"3b43a2387ec382ad42b26b25b5024fe697dd8815","infoHashBuffer":{"type":"Buffer","data":[59,67,162,56,126,195,130,173,66,178,107,37,181,2,79,230,151,221,136,21]},"announce":[],"urlList":[]}}